<svg width="6008" height="6008" viewBox="0 0 6008 6008" fill="none" xmlns="http://www.w3.org/2000/svg">
<g filter="url(#filter0_bd)">
<path fill-rule="evenodd" clip-rule="evenodd" d="M3004 6000C4660.85 6000 6004 4656.85 6004 3000C6004 1343.15 4660.85 0 3004 0C1347.15 0 4 1343.15 4 3000C4 4656.85 1347.15 6000 3004 6000ZM2937.03 1544.67V4138.53H3117.03V1544.67H2937.03ZM4114.62 3009.44V2826.34H4660.62V3833.37H4570.62L4492.62 3638.06C4450.62 3711.3 4395.62 3770.3 4327.62 3815.06C4259.62 3857.78 4185.62 3879.14 4105.62 3879.14C3815.62 3879.14 3670.62 3736.73 3670.62 3451.92V2231.28C3670.62 2094.97 3711.62 1990.2 3793.62 1916.96C3875.62 1841.69 3998.62 1804.05 4162.62 1804.05C4326.62 1804.05 4450.62 1841.69 4534.62 1916.96C4618.62 1990.2 4660.62 2094.97 4660.62 2231.28V2399.12H4450.62V2231.28C4450.62 2068.53 4355.62 1987.15 4165.62 1987.15C3975.62 1987.15 3880.62 2068.53 3880.62 2231.28V3451.92C3880.62 3529.22 3896.62 3589.24 3928.62 3631.96C3960.62 3674.68 4018.62 3696.04 4102.62 3696.04C4188.62 3696.04 4267.62 3661.46 4339.62 3592.29C4413.62 3523.12 4450.62 3455.99 4450.62 3390.88V3009.44H4114.62ZM1392.38 3833.37H1875.38C2033.38 3833.37 2152.38 3796.75 2232.38 3723.51C2312.38 3648.24 2352.38 3542.45 2352.38 3406.14V2277.05C2352.38 2142.78 2311.38 2038.01 2229.38 1962.74C2149.38 1887.46 2031.38 1849.83 1875.38 1849.83H1392.38V3833.37ZM2142.38 3406.14V2277.05C2142.38 2211.95 2118.38 2154.99 2070.38 2106.16C2024.38 2057.34 1959.38 2032.92 1875.38 2032.92H1602.38V3650.27H1875.38C1959.38 3650.27 2024.38 3626.87 2070.38 3580.08C2118.38 3531.26 2142.38 3473.28 2142.38 3406.14Z" fill="black"/>
</g>
<defs>
<filter id="filter0_bd" x="0" y="-4" width="6008" height="6012" filterUnits="userSpaceOnUse" color-interpolation-filters="sRGB">
<feFlood flood-opacity="0" result="BackgroundImageFix"/>
<feGaussianBlur in="BackgroundImage" stdDeviation="2"/>
<feComposite in2="SourceAlpha" operator="in" result="effect1_backgroundBlur"/>
<feColorMatrix in="SourceAlpha" type="matrix" values="0 0 0 0 0 0 0 0 0 0 0 0 0 0 0 0 0 0 127 0"/>
<feOffset dy="4"/>
<feGaussianBlur stdDeviation="2"/>
<feColorMatrix type="matrix" values="0 0 0 0 0 0 0 0 0 0 0 0 0 0 0 0 0 0 0.25 0"/>

<feBlend mode="normal" in="SourceGraphic" in2="effect2_dropShadow" result="shape"/>
</filter>
</defs>
</svg>
